P2
2 256
2370
0 1
1 1
2 2
3 2
4 6
5 22
6 32
7 50
8 89
9 167
10 364
11 614
12 914
13 1263
14 1656
15 1800
16 1942
17 2057
18 1968
19 1907
20 1981
21 1797
22 1681
23 1529
24 1391
25 1350
26 1237
27 1186
28 1299
29 1229
30 1217
31 1174
32 1271
33 1220
34 1179
35 1119
36 1202
37 1131
38 1151
39 1081
40 1117
41 1100
42 1060
43 1052
44 1070
45 1118
46 1071
47 1024
48 1159
49 1106
50 1108
51 1068
52 1168
53 1165
54 1114
55 1208
56 1259
57 1218
58 1289
59 1284
60 1350
61 1462
62 1456
63 1530
64 1543
65 1632
66 1699
67 1667
68 1700
69 1709
70 1751
71 1743
72 1803
73 1847
74 1980
75 1981
76 2067
77 2091
78 2160
79 2290
80 2359
81 2280
82 2240
83 2207
84 2217
85 2050
86 2035
87 2001
88 1885
89 1957
90 2045
91 1928
92 1970
93 1970
94 2008
95 2094
96 1954
97 2017
98 1942
99 1964
100 1986
101 1988
102 1941
103 1932
104 1828
105 1780
106 1689
107 1664
108 1619
109 1589
110 1468
111 1464
112 1449
113 1515
114 1391
115 1507
116 1506
117 1515
118 1494
119 1496
120 1442
121 1529
122 1638
123 1712
124 1820
125 1891
126 1940
127 2024
128 2091
129 2193
130 2191
131 2219
132 2283
133 2370
134 2271
135 2100
136 2112
137 2050
138 1949
139 1729
140 1658
141 1478
142 1406
143 1400
144 1320
145 1219
146 1250
147 1165
148 1203
149 1143
150 1094
151 1107
152 1082
153 1038
154 988
155 960
156 912
157 929
158 857
159 901
160 874
161 763
162 794
163 797
164 723
165 780
166 714
167 812
168 742
169 793
170 750
171 820
172 779
173 850
174 905
175 929
176 1017
177 971
178 995
179 929
180 829
181 756
182 710
183 694
184 686
185 522
186 497
187 528
188 454
189 416
190 407
191 332
192 299
193 239
194 237
195 191
196 178
197 181
198 143
199 142
200 145
201 141
202 108
203 82
204 65
205 71
206 57
207 39
208 35
209 19
210 22
211 11
212 13
213 9
214 10
215 9
216 5
217 8
218 4
219 3
220 1
221 0
222 0
223 0
224 0
225 0
226 0
227 0
228 0
229 0
230 0
231 0
232 0
233 0
234 0
235 0
236 0
237 0
238 0
239 0
240 0
241 0
242 0
243 0
244 0
245 0
246 0
247 0
248 0
249 0
250 0
251 0
252 0
253 0
254 0
255 0
